<svg id="Layer_1" enable-background="new 0 0 512 512" height="512" viewBox="0 0 512 512" width="512" xmlns="http://www.w3.org/2000/svg"><g><path d="m509.068 91.322-88.39-88.39c-2.03-2.04-4.86-3.09-7.72-2.91-2.87.19-5.52 1.6-7.27 3.88l-20.76 26.97c-30.65-5.46-60.72 4.84-85.339 29.42l-19.76 18.95c-.88-.5-24.74-15.48-29.1-17.82-50.28-26.97-64.699-31.06-110.179-31.3-4.31-.02-9.4.5-13.29 1l-20.95-27.22c-1.75-2.28-4.4-3.69-7.27-3.88s-5.69.87-7.72 2.91l-88.39 88.39c-2.04 2.03-3.1 4.84-2.91 7.71s1.6 5.53 3.88 7.28l26.97 20.76c-5.46 30.65 4.84 60.72 29.42 85.34l67.889 70.78c1.44 9.58 7.85 49.85 9.11 56.68 1.17 6.25 2.55 13.29 3.97 18.05 8.12 26.86 14.1 44.24 22.44 59.09 8.01 14.23 17.51 24.95 33.34 40.95 3.2 3.21 6.87 6.17 9.71 8.39l.39.3-4.43 34.06c-.37 2.85.5 5.73 2.4 7.89s4.64 3.4 7.51 3.4h125.009c2.87 0 5.61-1.24 7.51-3.4s2.77-5.04 2.4-7.89l-4.39-33.75c6.54-4.57 12.4-9.92 17.42-15.9 3.54-4.22 2.99-10.54-1.24-14.09-1.8-1.51-4.08-2.34-6.42-2.34-2.97 0-5.76 1.3-7.66 3.57-4.45 5.29-9.72 9.93-15.7 13.8-.002.001-.004.002-.005.003l-108.453.127c-1.06-.79-8.32-6.71-9.83-8.24-14.57-14.72-23.23-24.44-30.13-36.69-6.46-11.44-12.07-26.37-20.72-55.06-.83-2.68-2.11-8.62-3.45-15.91-3.3-17.85-11.96-75.89-11.96-76.02 0-1.34 1.07-2.49 2.39-2.55.57-.04 1.13-.06 1.71-.06 11.5 0 21.5 8.2 23.78 19.5l13.32 65.56c.94 4.64 5.06 8.01 9.79 8.01.33 0 .67-.02 1.01-.05 2.47-.25 4.74-1.4 6.41-3.24 1.67-1.85 2.59-4.23 2.59-6.71v-209.001c0-3.37 1.32-6.55 3.7-8.96 2.43-2.42 5.52-3.7 8.92-3.7 6.942.01 12.605 5.677 12.629 12.636 0 .008-.001 180.397-.001 180.397 0 5.523 4.477 10 10 10s10-4.477 10-10l.002-204.382c0-3.42 1.28-6.52 3.7-8.96 2.43-2.41 6.92-3.62 10.32-3.62 2.85.32 5.43 1.62 7.53 3.81.88.93 1.62 1.96 2.19 3.07.99 1.9 1.51 4.02 1.51 6.21l-.002 203.872c0 5.523 4.229 10 9.751 10s9.751-4.477 9.751-10v-180.334c0-.013.251-.026.251-.039 0-3.37 1.445-6.56 3.824-8.96 2.43-2.42 5.582-3.7 8.982-3.7 6.95.01 12.651 5.69 12.661 12.66l-2.569 180.178c-.107 5.521 4.289 10.085 9.811 10.192.066.001.136.002.202.002 5.432 0 10.015-4.35 10.121-9.806l2.717-132.896v-.19c0-3.37 1.195-6.55 3.575-8.96 2.44-2.42 5.457-3.7 8.867-3.7 6.9.01 12.539 5.66 12.589 12.58l-3.766 179.909c-.06 2.67.922 5.2 2.762 7.13 1.85 1.93 4.336 3.02 7.006 3.08 2.7.05 5.268-.97 7.198-2.85 1.89-1.85 2.959-4.31 3.009-6.94l.89-42.62c.07-.05 13.734-11.503 19.273-16.281 20.628-17.796 39.126-35.371 47.096-49.608 28.41-50.81 31.14-65.27 31.38-110.34.02-4.29-.5-9.4-1-13.29l27.22-20.95c2.28-1.75 3.69-4.4 3.88-7.27.189-2.88-.871-5.69-2.911-7.719zm-282.468 380.802 97.04-.114 2.6 19.99h-102.23zm-201.478-374.713 72.289-72.29 12.22 15.889-68.539 68.7zm215.678-12.829c-4.71 4.7-7.83 10.634-9.02 17.184-4.15-1.83-8.58-2.766-13.16-2.766h-.01c-4.39 0-8.66.866-12.7 2.576-3.9 1.66-7.39 4.013-10.36 7.003-2.99 2.98-5.34 6.481-6.99 10.381-1.7 4.04-2.56 8.321-2.56 12.711v125.77c-4-5.99-9.4-10.98-15.72-14.43-6.47-3.54-13.8-5.41-21.19-5.41-1.04 0-2.08.04-3.1.11-5.77.41-11.09 2.97-14.99 7.19-2.04 2.21-3.6 4.77-4.61 7.53l-51.74-53.94c-.05-.05-.1-.1-.15-.15-20.489-20.489-28.749-45.357-23.441-70.305l76.615-76.795c3.62-.51 8.967-1.129 12.775-1.119 40.2.21 51.32 2.37 100.829 28.92.95.51 2.13 1.21 3.56 2.09-1.438 1.03-2.778 2.18-4.038 3.45zm192.239 156.549c-7.46 13.33-30.559 33.96-48.349 49.08l2.31-110.85v-.21c0-8.72-3.4-17.166-9.55-23.336-6.16-6.17-14.35-9.816-23.07-9.816h-.02c-4.36 0-8.359 1.341-12.359 3.031v-17.36c0-8.72-3.525-16.926-9.675-23.096-6.161-6.168-14.486-9.574-23.206-9.574h-.01c-4.59 0-9.04.946-13.22 2.806-.53-2.72-1.38-5.337-2.54-7.817l20.16-19.339.15-.149c20.489-20.489 45.357-28.748 70.305-23.44l76.795 76.615c.51 3.62 1.13 8.967 1.12 12.776-.212 40.109-1.311 51.449-28.841 100.679zm37.95-131.5-68.7-68.539 12.3-15.97 72.289 72.29z"/><circle cx="371.164" cy="404.09" r="10"/></g></svg>