<svg id="Capa_1" enable-background="new 0 0 512 512" height="512" viewBox="0 0 512 512" width="512" xmlns="http://www.w3.org/2000/svg"><g><path d="m484.881 311.554c-.001 0-.001 0 0 0l-11.165-6.445c-36.92-21.317-37.016-76.845 0-98.217l11.166-6.445c14.326-8.272 19.251-26.656 10.98-40.98l-36.333-62.932c-8.271-14.324-26.654-19.248-40.981-10.98l-11.115 6.418c-36.648 21.157-85.105-6.046-85.105-49.027v-12.946c0-16.542-13.458-30-30-30h-72.667c-16.542 0-30 13.458-30 30v12.944c0 42.994-48.443 70.189-85.105 49.027l-11.116-6.418c-14.359-8.292-32.689-3.38-40.981 10.98l-36.333 62.932c-8.271 14.324-3.346 32.708 10.981 40.98l11.164 6.445c17.147 9.9 27.771 28.547 27.725 48.644v.465.446c.046 20.115-10.577 38.762-27.724 48.662l-11.166 6.445c-14.326 8.272-19.251 26.656-10.98 40.98l36.333 62.932c8.271 14.324 26.655 19.252 40.98 10.98l11.116-6.418c36.671-21.168 85.105 6.046 85.105 49.027v12.947c0 16.542 13.458 30 30 30h72.667c16.542 0 30-13.458 30-30v-12.944c0-42.988 48.441-70.193 85.105-49.027l11.117 6.419c14.325 8.269 32.709 3.344 40.98-10.981l36.333-62.932c8.29-14.36 3.379-32.69-10.981-40.981zm-51.334 88.912-11.116-6.418c-57.14-32.99-130.105 9.485-130.105 75.008v12.944h-72.667v-12.944c0-66.108-73.474-107.706-130.105-75.008l-11.116 6.418-36.334-62.932 11.165-6.445c26.425-15.257 42.795-43.885 42.725-74.729v-.359-.378c.071-30.826-16.3-59.454-42.725-74.711l-11.164-6.445 36.333-62.932 11.116 6.418c56.565 32.66 130.105-8.822 130.105-75.008v-12.945h72.667v12.944c0 66.129 73.488 107.693 130.105 75.008l11.116-6.418 36.334 62.932-11.165 6.445c-57.007 32.914-56.926 117.311 0 150.178l11.165 6.445z"/><path d="m255.992 129.812c-69.581 0-126.188 56.608-126.188 126.188s56.608 126.188 126.188 126.188 126.188-56.608 126.188-126.188-56.608-126.188-126.188-126.188zm0 222.376c-53.039 0-96.188-43.15-96.188-96.188s43.15-96.188 96.188-96.188 96.188 43.15 96.188 96.188-43.15 96.188-96.188 96.188z"/><path d="m275.234 217.936-19.644 17.712-7.198-6.714c-6.057-5.649-15.549-5.319-21.2.737-5.651 6.058-5.321 15.55.737 21.2l17.257 16.098c5.689 5.308 14.498 5.383 20.276.171l29.861-26.924c6.152-5.548 6.643-15.033 1.095-21.186-5.547-6.152-15.031-6.643-21.184-1.094z"/></g></svg>